<svg width="74" height="74" xmlns="http://www.w3.org/2000/svg"><defs><linearGradient x1="50%" y1="100%" x2="50%" y2="0%" id="a"><stop stop-color="#1CA9BA" offset="0%"/><stop stop-color="#23E6FE" offset="100%"/></linearGradient></defs><path d="M37 0C16.577 0 0 16.577 0 37s16.577 37 37 37 37-16.577 37-37S57.423 0 37 0zm0 2.242C56.21 2.242 71.758 17.79 71.758 37S56.21 71.758 37 71.758 2.242 56.21 2.242 37 17.79 2.242 37 2.242zm0 3.364c-.618 0-1.121.504-1.121 1.121 0 .618.503 1.121 1.121 1.121s1.121-.503 1.121-1.12c0-.618-.503-1.122-1.121-1.122zm5.935.578a1.125 1.125 0 0 0-1.13.907 1.127 1.127 0 0 0 .884 1.318 1.127 1.127 0 0 0 1.319-.88 1.13 1.13 0 0 0-.88-1.323c-.066-.009-.128-.017-.193-.022zM31.1 6.19a1.28 1.28 0 0 0-.223.017 1.123 1.123 0 0 0 .438 2.203 1.118 1.118 0 0 0 .88-1.318 1.125 1.125 0 0 0-1.095-.902zm-5.676 1.72a1.119 1.119 0 0 0-1.042 1.55c.236.575.89.847 1.463.61.574-.24.845-.893.609-1.467a1.127 1.127 0 0 0-1.03-.692zm23.187 0a1.126 1.126 0 0 0-1.065.693 1.124 1.124 0 0 0 .61 1.467 1.118 1.118 0 0 0 1.462-.609 1.119 1.119 0 0 0-1.007-1.55zm-28.416 2.795c-.228 0-.451.066-.64.193a1.12 1.12 0 1 0 1.249 1.861 1.116 1.116 0 0 0 .31-1.55 1.122 1.122 0 0 0-.919-.504zm33.64 0a1.121 1.121 0 0 0-.95.504 1.12 1.12 0 0 0 1.861 1.244c.167-.246.228-.552.171-.841a1.098 1.098 0 0 0-.477-.714 1.1 1.1 0 0 0-.604-.193zM15.61 14.471a1.13 1.13 0 0 0-.805.333 1.116 1.116 0 0 0 0 1.58 1.116 1.116 0 0 0 1.58 0 1.116 1.116 0 0 0 0-1.58 1.102 1.102 0 0 0-.775-.333zm42.812 0a1.13 1.13 0 0 0-.806.333 1.116 1.116 0 0 0 0 1.58 1.116 1.116 0 0 0 1.581 0 1.116 1.116 0 0 0 0-1.58 1.102 1.102 0 0 0-.775-.333zm3.762 4.59a1.115 1.115 0 0 0-.942 1.739 1.113 1.113 0 0 0 1.551.31 1.118 1.118 0 0 0-.609-2.05zm-50.336 0c-.38-.01-.74.18-.95.495a1.12 1.12 0 0 0 .31 1.554 1.12 1.12 0 1 0 1.245-1.861 1.132 1.132 0 0 0-.605-.188zm53.13 5.233a1.12 1.12 0 0 0-1.047 1.546 1.124 1.124 0 0 0 2.077-.858 1.123 1.123 0 0 0-1.03-.688zm-55.92 0a1.116 1.116 0 0 0-1.06.692 1.126 1.126 0 0 0 .605 1.468 1.123 1.123 0 0 0 1.467-.61 1.118 1.118 0 0 0-.609-1.462 1.057 1.057 0 0 0-.403-.088zm57.638 5.68a.961.961 0 0 0-.224.018 1.127 1.127 0 0 0-.88 1.319 1.127 1.127 0 0 0 1.318.884 1.13 1.13 0 0 0 .885-1.322 1.121 1.121 0 0 0-1.1-.898zm-59.355 0a1.122 1.122 0 1 0 1.07 1.337 1.121 1.121 0 0 0-.877-1.319c-.066-.008-.127-.017-.193-.017zm-.613 5.905c-.617 0-1.12.503-1.12 1.121s.503 1.121 1.12 1.121c.618 0 1.121-.503 1.121-1.121s-.503-1.121-1.12-1.121zm60.546 0c-.618 0-1.121.503-1.121 1.121s.503 1.121 1.12 1.121c.618 0 1.122-.503 1.122-1.121s-.504-1.121-1.121-1.121zM7.314 41.783a1.123 1.123 0 1 0 .215 2.225 1.124 1.124 0 1 0-.215-2.225zm59.407 0a1.125 1.125 0 0 0-1.13.906 1.127 1.127 0 0 0 .88 1.319 1.13 1.13 0 0 0 1.323-.88 1.13 1.13 0 0 0-.885-1.323c-.061-.01-.122-.018-.188-.022zm-1.726 5.676a1.13 1.13 0 0 0-1.064.696 1.12 1.12 0 0 0 .609 1.463 1.126 1.126 0 0 0 1.467-.604 1.123 1.123 0 0 0-.609-1.468 1.167 1.167 0 0 0-.403-.087zm-55.955.004c-.15 0-.298.026-.438.083-.272.114-.49.333-.605.61a1.142 1.142 0 0 0-.004.858c.24.573.893.845 1.467.604a1.1 1.1 0 0 0 .609-.604 1.121 1.121 0 0 0-1.03-1.55zm53.152 5.234a1.12 1.12 0 1 0 .6.188 1.048 1.048 0 0 0-.6-.188zm-50.35 0a1.092 1.092 0 0 0-.634.188 1.126 1.126 0 0 0-.311 1.555 1.126 1.126 0 0 0 1.559.307 1.12 1.12 0 0 0-.613-2.05zm3.767 4.59a1.107 1.107 0 0 0-.805.328 1.116 1.116 0 0 0 0 1.581 1.116 1.116 0 0 0 1.58 0 1.116 1.116 0 0 0 0-1.58 1.08 1.08 0 0 0-.775-.33zm42.812 0a1.107 1.107 0 0 0-.806.328 1.116 1.116 0 0 0 0 1.581 1.116 1.116 0 0 0 1.581 0 1.116 1.116 0 0 0 0-1.58 1.08 1.08 0 0 0-.775-.33zm-38.217 3.762c-.381-.009-.74.18-.95.495a1.12 1.12 0 1 0 .95-.495zm33.627 0a1.12 1.12 0 0 0-.635.184 1.121 1.121 0 0 0-.307 1.56 1.125 1.125 0 0 0 1.555.31 1.126 1.126 0 0 0 .307-1.559 1.102 1.102 0 0 0-.92-.495zm-28.39 2.794a1.12 1.12 0 0 0-1.059.697 1.121 1.121 0 1 0 1.463-.609 1.146 1.146 0 0 0-.403-.088zm23.152 0c-.149 0-.298.031-.433.088a1.127 1.127 0 0 0-.614 1.467 1.126 1.126 0 0 0 2.076 0 1.121 1.121 0 0 0 0-.858 1.12 1.12 0 0 0-1.029-.697zM31.127 65.57a1.122 1.122 0 0 0-.25 2.22 1.118 1.118 0 0 0 1.318-.88 1.118 1.118 0 0 0-1.068-1.34zm11.781.004a.906.906 0 0 0-.219.018 1.125 1.125 0 0 0-.884 1.318 1.132 1.132 0 0 0 1.323.885c.288-.061.547-.232.713-.477a1.15 1.15 0 0 0 .167-.846 1.121 1.121 0 0 0-1.1-.898zM37 66.152c.618 0 1.121.503 1.121 1.12 0 .618-.503 1.122-1.121 1.122a1.123 1.123 0 0 1-1.121-1.121c0-.618.503-1.121 1.121-1.121zm13.482-28.306c.69.69.69 1.81 0 2.503L38.81 52.02c-.02.02-.041.037-.062.055-.058.063-.12.125-.187.18-.02.017-.042.031-.063.048-.025.017-.05.038-.076.055-.025.018-.05.031-.077.047-.023.014-.047.029-.071.042l-.08.04c-.025.011-.05.024-.077.035a.683.683 0 0 1-.08.028c-.027.01-.055.021-.083.03-.027.008-.053.014-.08.02-.03.006-.059.016-.088.021-.03.007-.062.01-.093.015l-.078.011a1.798 1.798 0 0 1-.349 0l-.078-.011c-.03-.006-.062-.01-.093-.015-.03-.005-.058-.015-.088-.02-.026-.007-.052-.013-.08-.022-.028-.008-.056-.019-.084-.029-.026-.009-.053-.017-.08-.028l-.076-.036c-.026-.012-.053-.024-.08-.04a1.257 1.257 0 0 1-.071-.04c-.026-.017-.051-.03-.077-.048-.025-.017-.05-.038-.076-.055-.02-.017-.042-.03-.063-.048a1.689 1.689 0 0 1-.13-.118L24.52 40.467a1.768 1.768 0 0 1 0-2.502 1.767 1.767 0 0 1 2.5 0l8.654 8.653V23.769a1.769 1.769 0 1 1 3.537 0v22.849l8.771-8.772c.69-.69 1.81-.69 2.501 0z" fill="url(#a)" fill-rule="nonzero"/></svg>
